<svg width="28" height="28" viewBox="0 0 28 28" fill="none" xmlns="http://www.w3.org/2000/svg">
<path fill-rule="evenodd" clip-rule="evenodd" d="M13.9998 0.666748C21.3636 0.666748 27.3332 6.63628 27.3332 14.0001C27.3332 17.2022 26.2044 20.1407 24.323 22.4393L24.3488 22.4695L24.1737 22.6185C21.728 25.5027 18.0777 27.3334 13.9998 27.3334C10.0676 27.3334 6.533 25.6312 4.09259 22.9234L3.82597 22.6185L3.65084 22.4695L3.67668 22.4393C1.7953 20.1407 0.666504 17.2022 0.666504 14.0001C0.666504 6.63628 6.63604 0.666748 13.9998 0.666748ZM13.9998 20.6667C11.5202 20.6667 9.2784 21.4562 7.60858 22.5407C9.38982 23.8758 11.6025 24.6667 13.9998 24.6667C16.3972 24.6667 18.6098 23.8758 20.391 22.5407C18.7213 21.4562 16.4794 20.6667 13.9998 20.6667ZM13.9998 3.33341C8.1088 3.33341 3.33317 8.10904 3.33317 14.0001C3.33317 16.513 4.20214 18.823 5.65598 20.6458C7.81721 19.0949 10.7664 18.0001 13.9998 18.0001C17.2333 18.0001 20.1825 19.0949 22.3437 20.6458C23.7976 18.823 24.6665 16.513 24.6665 14.0001C24.6665 8.10904 19.8909 3.33341 13.9998 3.33341ZM13.9998 6.00008C16.9453 6.00008 19.3332 8.38789 19.3332 11.3334C19.3332 14.2789 16.9453 16.6667 13.9998 16.6667C11.0543 16.6667 8.6665 14.2789 8.6665 11.3334C8.6665 8.38789 11.0543 6.00008 13.9998 6.00008ZM13.9998 8.66675C12.527 8.66675 11.3332 9.86065 11.3332 11.3334C11.3332 12.8062 12.527 14.0001 13.9998 14.0001C15.4726 14.0001 16.6665 12.8062 16.6665 11.3334C16.6665 9.86065 15.4726 8.66675 13.9998 8.66675Z" fill="#434343" stroke="white" stroke-width="1.2" stroke-linecap="round" stroke-linejoin="round"/>
</svg>
